M48
; DRILL file {KiCad 9.0.5} date 2025-11-26T19:51:01+0300
; FORMAT={-:-/ absolute / inch / decimal}
; #@! TF.CreationDate,2025-11-26T19:51:01+03:00
; #@! TF.GenerationSoftware,Kicad,Pcbnew,9.0.5
; #@! TF.FileFunction,Plated,1,2,PTH
FMAT,2
INCH
; #@! TA.AperFunction,Plated,PTH,ViaDrill
T1C0.0118
; #@! TA.AperFunction,Plated,PTH,ViaDrill
T2C0.0157
; #@! TA.AperFunction,Plated,PTH,ComponentDrill
T3C0.0197
; #@! TA.AperFunction,Plated,PTH,ComponentDrill
T4C0.0276
; #@! TA.AperFunction,Plated,PTH,ComponentDrill
T5C0.0394
; #@! TA.AperFunction,Plated,PTH,ComponentDrill
T6C0.0413
; #@! TA.AperFunction,Plated,PTH,ComponentDrill
T7C0.0512
; #@! TA.AperFunction,Plated,PTH,ComponentDrill
T8C0.0531
; #@! TA.AperFunction,Plated,PTH,ComponentDrill
T9C0.1181
%
G90
G05
T1
X2.8874Y-2.1952
X2.8874Y-2.2952
X2.8874Y-2.3952
X2.9874Y-2.1952
X2.9874Y-2.2952
X2.9874Y-2.3952
X3.0874Y-1.0952
X3.0874Y-2.1952
X3.0874Y-2.2952
X3.1874Y-1.0952
X3.1874Y-2.1952
X3.2874Y-1.0952
X3.2874Y-1.1952
X3.3874Y-1.0952
X3.3874Y-1.1952
X3.4874Y-1.0952
X3.4874Y-1.1952
X3.5874Y-1.0952
X3.5874Y-1.1952
X3.6874Y-1.0952
X3.6874Y-1.1952
X3.7874Y-1.0952
X3.7874Y-1.1952
X4.1874Y-2.4952
X4.4874Y-2.4952
X4.9874Y-2.4952
X4.9874Y-2.5952
X4.9874Y-2.6952
T2
X2.4105Y-2.054
X2.4109Y-1.8545
X2.4114Y-3.4545
X2.4122Y-3.6544
X2.4122Y-4.4537
X2.4122Y-1.7309
X2.4122Y-1.9307
X2.4122Y-2.1305
X2.4122Y-2.2556
X2.4122Y-2.3304
X2.4122Y-2.5302
X2.4122Y-2.6552
X2.4122Y-2.73
X2.4122Y-2.855
X2.4122Y-2.9298
X2.4122Y-3.0549
X2.4122Y-3.1297
X2.4122Y-3.2547
X2.4122Y-3.3295
X2.4122Y-3.5293
X2.4122Y-3.7292
X2.4122Y-3.8542
X2.4122Y-3.929
X2.4122Y-4.1288
X2.4122Y-4.2538
X2.4122Y-4.3286
X2.4126Y-4.054
X2.4135Y-2.4566
X2.5354Y-1.2815
X2.7564Y-1.4565
X2.7569Y-1.3226
X3.0388Y-3.8064
X3.0773Y-2.368
X3.0881Y-1.2372
X3.0988Y-2.9029
X3.115Y-3.0118
X3.1866Y-2.2592
X3.189Y-3.3957
X3.1969Y-2.4094
X3.2069Y-1.2372
X3.2874Y-3.2205
X3.3169Y-3.2972
X3.3229Y-1.5051
X3.3307Y-3.3937
X3.3465Y-3.2283
X3.3709Y-3.9512
X3.3709Y-4.0157
X3.3907Y-2.3675
X3.4049Y-3.0092
X3.4724Y-3.437
X3.5875Y-1.5905
X3.6129Y-1.5051
X4.0896Y-2.1998
X4.155Y-2.5882
X4.2619Y-2.5914
X4.268Y-2.4862
X4.2805Y-1.5551
X4.2805Y-1.685
X4.2805Y-1.7992
X4.2805Y-1.9252
X4.3019Y-1.2243
X4.3193Y-3.0924
X4.3287Y-4.2043
X4.3485Y-2.6544
X4.3567Y-2.8627
X4.3622Y-1.7992
X4.3957Y-2.9349
X4.398Y-4.1983
X4.4159Y-1.2292
X4.4339Y-3.2465
X4.4685Y-2.5787
X4.4685Y-2.6181
X4.5059Y-3.2146
X4.5167Y-1.6429
X4.5167Y-1.7429
X4.5167Y-1.8429
X4.5374Y-3.1559
X4.5472Y-2.6181
X4.5472Y-2.9124
X4.5825Y-2.8248
X4.6181Y-2.5118
X4.6284Y-2.4531
X4.6284Y-2.5748
X4.6294Y-2.97
X4.6358Y-2.8445
X4.6756Y-2.9819
X4.685Y-2.8642
X4.7264Y-3.1693
X4.7313Y-2.7744
X4.7736Y-3.1004
X4.872Y-1.9783
X4.873Y-1.6429
X4.873Y-1.8429
X4.8991Y-2.4531
X4.8991Y-2.5727
X4.8991Y-2.6923
X4.9503Y-2.8548
X4.9587Y-3.1693
X4.97Y-1.89
X5.0098Y-2.874
X5.0413Y-1.9783
X5.2165Y-3.3588
X5.2165Y-3.4405
X5.2165Y-3.5965
T3
X2.452Y-1.1961
X2.9921Y-2.7953
X3.1299Y-1.6929
X3.7346Y-1.4378
X3.985Y-1.8102
X3.985Y-1.9244
X4.0551Y-4.2441
X4.2386Y-2.9374
X4.6614Y-4.2441
X4.8004Y-3.2528
T4
X3.3571Y-3.8264
X3.4571Y-3.8264
X3.5571Y-3.8264
X3.8055Y-2.6378
X3.9055Y-2.6378
X4.0055Y-2.6378
X4.4177Y-2.0945
X4.5177Y-2.0945
X4.6177Y-2.0945
X4.7906Y-2.0945
X4.8906Y-2.0945
X4.9906Y-2.0945
T5
X3.1063Y-2.5157
X3.1063Y-2.6929
X3.3622Y-2.5157
X3.3622Y-2.6929
X4.8406Y-1.1299
X4.8406Y-1.3268
X4.8898Y-3.3878
X4.8898Y-3.6437
X5.0669Y-3.3878
X5.0669Y-3.6437
X5.2307Y-2.6
X5.2307Y-2.7
X5.2307Y-2.8
X5.2307Y-2.9
X5.2307Y-3.0
X5.3307Y-2.6
X5.3307Y-2.7
X5.3307Y-2.8
X5.3307Y-2.9
X5.3307Y-3.0
T6
X4.0984Y-1.1563
X4.0984Y-1.2563
X4.0984Y-1.3563
X4.0984Y-1.4563
T7
X2.8028Y-4.7866
X3.0028Y-4.7866
X5.2992Y-1.1323
X5.2992Y-1.3323
X5.2992Y-1.5323
X5.2992Y-1.7323
T8
X1.935Y-1.511
X1.935Y-1.661
X1.935Y-1.811
X1.935Y-1.961
X1.935Y-2.111
X1.935Y-2.261
X1.935Y-2.611
X1.935Y-2.761
X1.935Y-2.911
X1.935Y-3.061
X1.935Y-3.211
X1.935Y-3.361
X1.935Y-3.711
X1.935Y-3.861
X1.935Y-4.011
X1.935Y-4.161
X1.935Y-4.311
X1.935Y-4.461
T9
X3.359Y-4.2423
X3.359Y-4.7738
X3.5952Y-4.2423
X3.5952Y-4.7738
X3.8315Y-4.2423
X3.8315Y-4.7738
X4.8952Y-4.2423
X4.8952Y-4.7738
X5.1315Y-4.2423
X5.1315Y-4.7738
X5.3677Y-4.2423
X5.3677Y-4.7738
M30
