%TF.GenerationSoftware,KiCad,Pcbnew,9.0.5*%
%TF.CreationDate,2025-11-18T12:35:56+03:00*%
%TF.ProjectId,BMS_V4.013,424d535f-5634-42e3-9031-332e6b696361,rev?*%
%TF.SameCoordinates,Original*%
%TF.FileFunction,Legend,Bot*%
%TF.FilePolarity,Positive*%
%FSLAX46Y46*%
G04 Gerber Fmt 4.6, Leading zero omitted, Abs format (unit mm)*
G04 Created by KiCad (PCBNEW 9.0.5) date 2025-11-18 12:35:56*
%MOMM*%
%LPD*%
G01*
G04 APERTURE LIST*
%ADD10C,0.200000*%
%ADD11C,0.150000*%
%ADD12C,0.120000*%
G04 APERTURE END LIST*
D10*
X136624435Y-74062780D02*
X137291101Y-73062780D01*
X137291101Y-74062780D02*
X136624435Y-73062780D01*
X130811101Y-69002780D02*
X131477767Y-68002780D01*
X131477767Y-69002780D02*
X130811101Y-68002780D01*
X126589673Y-33291353D02*
X126542054Y-33243734D01*
X126542054Y-33243734D02*
X126399197Y-33196114D01*
X126399197Y-33196114D02*
X126303959Y-33196114D01*
X126303959Y-33196114D02*
X126161102Y-33243734D01*
X126161102Y-33243734D02*
X126065864Y-33338972D01*
X126065864Y-33338972D02*
X126018245Y-33434210D01*
X126018245Y-33434210D02*
X125970626Y-33624686D01*
X125970626Y-33624686D02*
X125970626Y-33767543D01*
X125970626Y-33767543D02*
X126018245Y-33958019D01*
X126018245Y-33958019D02*
X126065864Y-34053257D01*
X126065864Y-34053257D02*
X126161102Y-34148495D01*
X126161102Y-34148495D02*
X126303959Y-34196114D01*
X126303959Y-34196114D02*
X126399197Y-34196114D01*
X126399197Y-34196114D02*
X126542054Y-34148495D01*
X126542054Y-34148495D02*
X126589673Y-34100876D01*
X126970626Y-33481829D02*
X127446816Y-33481829D01*
X126875388Y-33196114D02*
X127208721Y-34196114D01*
X127208721Y-34196114D02*
X127542054Y-33196114D01*
X127875388Y-33196114D02*
X127875388Y-34196114D01*
X127875388Y-34196114D02*
X128446816Y-33196114D01*
X128446816Y-33196114D02*
X128446816Y-34196114D01*
X128684912Y-33100876D02*
X129446816Y-33100876D01*
X129684912Y-33196114D02*
X129684912Y-34196114D01*
X129684912Y-33719924D02*
X130256340Y-33719924D01*
X130256340Y-33196114D02*
X130256340Y-34196114D01*
X130732531Y-33196114D02*
X130732531Y-34196114D01*
X131732530Y-34148495D02*
X131637292Y-34196114D01*
X131637292Y-34196114D02*
X131494435Y-34196114D01*
X131494435Y-34196114D02*
X131351578Y-34148495D01*
X131351578Y-34148495D02*
X131256340Y-34053257D01*
X131256340Y-34053257D02*
X131208721Y-33958019D01*
X131208721Y-33958019D02*
X131161102Y-33767543D01*
X131161102Y-33767543D02*
X131161102Y-33624686D01*
X131161102Y-33624686D02*
X131208721Y-33434210D01*
X131208721Y-33434210D02*
X131256340Y-33338972D01*
X131256340Y-33338972D02*
X131351578Y-33243734D01*
X131351578Y-33243734D02*
X131494435Y-33196114D01*
X131494435Y-33196114D02*
X131589673Y-33196114D01*
X131589673Y-33196114D02*
X131732530Y-33243734D01*
X131732530Y-33243734D02*
X131780149Y-33291353D01*
X131780149Y-33291353D02*
X131780149Y-33624686D01*
X131780149Y-33624686D02*
X131589673Y-33624686D01*
X132208721Y-33196114D02*
X132208721Y-34196114D01*
X132208721Y-33719924D02*
X132780149Y-33719924D01*
X132780149Y-33196114D02*
X132780149Y-34196114D01*
X126906339Y-75610400D02*
X127049196Y-75562780D01*
X127049196Y-75562780D02*
X127287291Y-75562780D01*
X127287291Y-75562780D02*
X127382529Y-75610400D01*
X127382529Y-75610400D02*
X127430148Y-75658019D01*
X127430148Y-75658019D02*
X127477767Y-75753257D01*
X127477767Y-75753257D02*
X127477767Y-75848495D01*
X127477767Y-75848495D02*
X127430148Y-75943733D01*
X127430148Y-75943733D02*
X127382529Y-75991352D01*
X127382529Y-75991352D02*
X127287291Y-76038971D01*
X127287291Y-76038971D02*
X127096815Y-76086590D01*
X127096815Y-76086590D02*
X127001577Y-76134209D01*
X127001577Y-76134209D02*
X126953958Y-76181828D01*
X126953958Y-76181828D02*
X126906339Y-76277066D01*
X126906339Y-76277066D02*
X126906339Y-76372304D01*
X126906339Y-76372304D02*
X126953958Y-76467542D01*
X126953958Y-76467542D02*
X127001577Y-76515161D01*
X127001577Y-76515161D02*
X127096815Y-76562780D01*
X127096815Y-76562780D02*
X127334910Y-76562780D01*
X127334910Y-76562780D02*
X127477767Y-76515161D01*
X127811101Y-76562780D02*
X128049196Y-75562780D01*
X128049196Y-75562780D02*
X128239672Y-76277066D01*
X128239672Y-76277066D02*
X128430148Y-75562780D01*
X128430148Y-75562780D02*
X128668244Y-76562780D01*
X129620624Y-75658019D02*
X129573005Y-75610400D01*
X129573005Y-75610400D02*
X129430148Y-75562780D01*
X129430148Y-75562780D02*
X129334910Y-75562780D01*
X129334910Y-75562780D02*
X129192053Y-75610400D01*
X129192053Y-75610400D02*
X129096815Y-75705638D01*
X129096815Y-75705638D02*
X129049196Y-75800876D01*
X129049196Y-75800876D02*
X129001577Y-75991352D01*
X129001577Y-75991352D02*
X129001577Y-76134209D01*
X129001577Y-76134209D02*
X129049196Y-76324685D01*
X129049196Y-76324685D02*
X129096815Y-76419923D01*
X129096815Y-76419923D02*
X129192053Y-76515161D01*
X129192053Y-76515161D02*
X129334910Y-76562780D01*
X129334910Y-76562780D02*
X129430148Y-76562780D01*
X129430148Y-76562780D02*
X129573005Y-76515161D01*
X129573005Y-76515161D02*
X129620624Y-76467542D01*
X130525386Y-75562780D02*
X130049196Y-75562780D01*
X130049196Y-75562780D02*
X130049196Y-76562780D01*
X130858720Y-75562780D02*
X130858720Y-76562780D01*
X131430148Y-75562780D02*
X131001577Y-76134209D01*
X131430148Y-76562780D02*
X130858720Y-75991352D01*
X126970626Y-43329447D02*
X126970626Y-44329447D01*
X127399197Y-43377067D02*
X127542054Y-43329447D01*
X127542054Y-43329447D02*
X127780149Y-43329447D01*
X127780149Y-43329447D02*
X127875387Y-43377067D01*
X127875387Y-43377067D02*
X127923006Y-43424686D01*
X127923006Y-43424686D02*
X127970625Y-43519924D01*
X127970625Y-43519924D02*
X127970625Y-43615162D01*
X127970625Y-43615162D02*
X127923006Y-43710400D01*
X127923006Y-43710400D02*
X127875387Y-43758019D01*
X127875387Y-43758019D02*
X127780149Y-43805638D01*
X127780149Y-43805638D02*
X127589673Y-43853257D01*
X127589673Y-43853257D02*
X127494435Y-43900876D01*
X127494435Y-43900876D02*
X127446816Y-43948495D01*
X127446816Y-43948495D02*
X127399197Y-44043733D01*
X127399197Y-44043733D02*
X127399197Y-44138971D01*
X127399197Y-44138971D02*
X127446816Y-44234209D01*
X127446816Y-44234209D02*
X127494435Y-44281828D01*
X127494435Y-44281828D02*
X127589673Y-44329447D01*
X127589673Y-44329447D02*
X127827768Y-44329447D01*
X127827768Y-44329447D02*
X127970625Y-44281828D01*
X128589673Y-44329447D02*
X128780149Y-44329447D01*
X128780149Y-44329447D02*
X128875387Y-44281828D01*
X128875387Y-44281828D02*
X128970625Y-44186590D01*
X128970625Y-44186590D02*
X129018244Y-43996114D01*
X129018244Y-43996114D02*
X129018244Y-43662781D01*
X129018244Y-43662781D02*
X128970625Y-43472305D01*
X128970625Y-43472305D02*
X128875387Y-43377067D01*
X128875387Y-43377067D02*
X128780149Y-43329447D01*
X128780149Y-43329447D02*
X128589673Y-43329447D01*
X128589673Y-43329447D02*
X128494435Y-43377067D01*
X128494435Y-43377067D02*
X128399197Y-43472305D01*
X128399197Y-43472305D02*
X128351578Y-43662781D01*
X128351578Y-43662781D02*
X128351578Y-43996114D01*
X128351578Y-43996114D02*
X128399197Y-44186590D01*
X128399197Y-44186590D02*
X128494435Y-44281828D01*
X128494435Y-44281828D02*
X128589673Y-44329447D01*
X129208721Y-43234209D02*
X129970625Y-43234209D01*
X130732530Y-44281828D02*
X130637292Y-44329447D01*
X130637292Y-44329447D02*
X130494435Y-44329447D01*
X130494435Y-44329447D02*
X130351578Y-44281828D01*
X130351578Y-44281828D02*
X130256340Y-44186590D01*
X130256340Y-44186590D02*
X130208721Y-44091352D01*
X130208721Y-44091352D02*
X130161102Y-43900876D01*
X130161102Y-43900876D02*
X130161102Y-43758019D01*
X130161102Y-43758019D02*
X130208721Y-43567543D01*
X130208721Y-43567543D02*
X130256340Y-43472305D01*
X130256340Y-43472305D02*
X130351578Y-43377067D01*
X130351578Y-43377067D02*
X130494435Y-43329447D01*
X130494435Y-43329447D02*
X130589673Y-43329447D01*
X130589673Y-43329447D02*
X130732530Y-43377067D01*
X130732530Y-43377067D02*
X130780149Y-43424686D01*
X130780149Y-43424686D02*
X130780149Y-43758019D01*
X130780149Y-43758019D02*
X130589673Y-43758019D01*
X131208721Y-43329447D02*
X131208721Y-44329447D01*
X131208721Y-44329447D02*
X131780149Y-43329447D01*
X131780149Y-43329447D02*
X131780149Y-44329447D01*
X132256340Y-43329447D02*
X132256340Y-44329447D01*
X132256340Y-44329447D02*
X132494435Y-44329447D01*
X132494435Y-44329447D02*
X132637292Y-44281828D01*
X132637292Y-44281828D02*
X132732530Y-44186590D01*
X132732530Y-44186590D02*
X132780149Y-44091352D01*
X132780149Y-44091352D02*
X132827768Y-43900876D01*
X132827768Y-43900876D02*
X132827768Y-43758019D01*
X132827768Y-43758019D02*
X132780149Y-43567543D01*
X132780149Y-43567543D02*
X132732530Y-43472305D01*
X132732530Y-43472305D02*
X132637292Y-43377067D01*
X132637292Y-43377067D02*
X132494435Y-43329447D01*
X132494435Y-43329447D02*
X132256340Y-43329447D01*
X129334910Y-71475161D02*
X129239672Y-71522780D01*
X129239672Y-71522780D02*
X129096815Y-71522780D01*
X129096815Y-71522780D02*
X128953958Y-71475161D01*
X128953958Y-71475161D02*
X128858720Y-71379923D01*
X128858720Y-71379923D02*
X128811101Y-71284685D01*
X128811101Y-71284685D02*
X128763482Y-71094209D01*
X128763482Y-71094209D02*
X128763482Y-70951352D01*
X128763482Y-70951352D02*
X128811101Y-70760876D01*
X128811101Y-70760876D02*
X128858720Y-70665638D01*
X128858720Y-70665638D02*
X128953958Y-70570400D01*
X128953958Y-70570400D02*
X129096815Y-70522780D01*
X129096815Y-70522780D02*
X129192053Y-70522780D01*
X129192053Y-70522780D02*
X129334910Y-70570400D01*
X129334910Y-70570400D02*
X129382529Y-70618019D01*
X129382529Y-70618019D02*
X129382529Y-70951352D01*
X129382529Y-70951352D02*
X129192053Y-70951352D01*
X129811101Y-70522780D02*
X129811101Y-71522780D01*
X129811101Y-71522780D02*
X130382529Y-70522780D01*
X130382529Y-70522780D02*
X130382529Y-71522780D01*
X130858720Y-70522780D02*
X130858720Y-71522780D01*
X130858720Y-71522780D02*
X131096815Y-71522780D01*
X131096815Y-71522780D02*
X131239672Y-71475161D01*
X131239672Y-71475161D02*
X131334910Y-71379923D01*
X131334910Y-71379923D02*
X131382529Y-71284685D01*
X131382529Y-71284685D02*
X131430148Y-71094209D01*
X131430148Y-71094209D02*
X131430148Y-70951352D01*
X131430148Y-70951352D02*
X131382529Y-70760876D01*
X131382529Y-70760876D02*
X131334910Y-70665638D01*
X131334910Y-70665638D02*
X131239672Y-70570400D01*
X131239672Y-70570400D02*
X131096815Y-70522780D01*
X131096815Y-70522780D02*
X130858720Y-70522780D01*
X137291101Y-75562780D02*
X136957768Y-76038971D01*
X136719673Y-75562780D02*
X136719673Y-76562780D01*
X136719673Y-76562780D02*
X137100625Y-76562780D01*
X137100625Y-76562780D02*
X137195863Y-76515161D01*
X137195863Y-76515161D02*
X137243482Y-76467542D01*
X137243482Y-76467542D02*
X137291101Y-76372304D01*
X137291101Y-76372304D02*
X137291101Y-76229447D01*
X137291101Y-76229447D02*
X137243482Y-76134209D01*
X137243482Y-76134209D02*
X137195863Y-76086590D01*
X137195863Y-76086590D02*
X137100625Y-76038971D01*
X137100625Y-76038971D02*
X136719673Y-76038971D01*
X137672054Y-75610400D02*
X137814911Y-75562780D01*
X137814911Y-75562780D02*
X138053006Y-75562780D01*
X138053006Y-75562780D02*
X138148244Y-75610400D01*
X138148244Y-75610400D02*
X138195863Y-75658019D01*
X138195863Y-75658019D02*
X138243482Y-75753257D01*
X138243482Y-75753257D02*
X138243482Y-75848495D01*
X138243482Y-75848495D02*
X138195863Y-75943733D01*
X138195863Y-75943733D02*
X138148244Y-75991352D01*
X138148244Y-75991352D02*
X138053006Y-76038971D01*
X138053006Y-76038971D02*
X137862530Y-76086590D01*
X137862530Y-76086590D02*
X137767292Y-76134209D01*
X137767292Y-76134209D02*
X137719673Y-76181828D01*
X137719673Y-76181828D02*
X137672054Y-76277066D01*
X137672054Y-76277066D02*
X137672054Y-76372304D01*
X137672054Y-76372304D02*
X137719673Y-76467542D01*
X137719673Y-76467542D02*
X137767292Y-76515161D01*
X137767292Y-76515161D02*
X137862530Y-76562780D01*
X137862530Y-76562780D02*
X138100625Y-76562780D01*
X138100625Y-76562780D02*
X138243482Y-76515161D01*
X138529197Y-76562780D02*
X139100625Y-76562780D01*
X138814911Y-75562780D02*
X138814911Y-76562780D01*
X127161101Y-38358019D02*
X127113482Y-38310400D01*
X127113482Y-38310400D02*
X126970625Y-38262780D01*
X126970625Y-38262780D02*
X126875387Y-38262780D01*
X126875387Y-38262780D02*
X126732530Y-38310400D01*
X126732530Y-38310400D02*
X126637292Y-38405638D01*
X126637292Y-38405638D02*
X126589673Y-38500876D01*
X126589673Y-38500876D02*
X126542054Y-38691352D01*
X126542054Y-38691352D02*
X126542054Y-38834209D01*
X126542054Y-38834209D02*
X126589673Y-39024685D01*
X126589673Y-39024685D02*
X126637292Y-39119923D01*
X126637292Y-39119923D02*
X126732530Y-39215161D01*
X126732530Y-39215161D02*
X126875387Y-39262780D01*
X126875387Y-39262780D02*
X126970625Y-39262780D01*
X126970625Y-39262780D02*
X127113482Y-39215161D01*
X127113482Y-39215161D02*
X127161101Y-39167542D01*
X127542054Y-38548495D02*
X128018244Y-38548495D01*
X127446816Y-38262780D02*
X127780149Y-39262780D01*
X127780149Y-39262780D02*
X128113482Y-38262780D01*
X128446816Y-38262780D02*
X128446816Y-39262780D01*
X128446816Y-39262780D02*
X129018244Y-38262780D01*
X129018244Y-38262780D02*
X129018244Y-39262780D01*
X129256340Y-38167542D02*
X130018244Y-38167542D01*
X130732530Y-38262780D02*
X130256340Y-38262780D01*
X130256340Y-38262780D02*
X130256340Y-39262780D01*
X131256340Y-39262780D02*
X131446816Y-39262780D01*
X131446816Y-39262780D02*
X131542054Y-39215161D01*
X131542054Y-39215161D02*
X131637292Y-39119923D01*
X131637292Y-39119923D02*
X131684911Y-38929447D01*
X131684911Y-38929447D02*
X131684911Y-38596114D01*
X131684911Y-38596114D02*
X131637292Y-38405638D01*
X131637292Y-38405638D02*
X131542054Y-38310400D01*
X131542054Y-38310400D02*
X131446816Y-38262780D01*
X131446816Y-38262780D02*
X131256340Y-38262780D01*
X131256340Y-38262780D02*
X131161102Y-38310400D01*
X131161102Y-38310400D02*
X131065864Y-38405638D01*
X131065864Y-38405638D02*
X131018245Y-38596114D01*
X131018245Y-38596114D02*
X131018245Y-38929447D01*
X131018245Y-38929447D02*
X131065864Y-39119923D01*
X131065864Y-39119923D02*
X131161102Y-39215161D01*
X131161102Y-39215161D02*
X131256340Y-39262780D01*
X132018245Y-39262780D02*
X132256340Y-38262780D01*
X132256340Y-38262780D02*
X132446816Y-38977066D01*
X132446816Y-38977066D02*
X132637292Y-38262780D01*
X132637292Y-38262780D02*
X132875388Y-39262780D01*
X125732531Y-28129447D02*
X125732531Y-29129447D01*
X126161102Y-28177067D02*
X126303959Y-28129447D01*
X126303959Y-28129447D02*
X126542054Y-28129447D01*
X126542054Y-28129447D02*
X126637292Y-28177067D01*
X126637292Y-28177067D02*
X126684911Y-28224686D01*
X126684911Y-28224686D02*
X126732530Y-28319924D01*
X126732530Y-28319924D02*
X126732530Y-28415162D01*
X126732530Y-28415162D02*
X126684911Y-28510400D01*
X126684911Y-28510400D02*
X126637292Y-28558019D01*
X126637292Y-28558019D02*
X126542054Y-28605638D01*
X126542054Y-28605638D02*
X126351578Y-28653257D01*
X126351578Y-28653257D02*
X126256340Y-28700876D01*
X126256340Y-28700876D02*
X126208721Y-28748495D01*
X126208721Y-28748495D02*
X126161102Y-28843733D01*
X126161102Y-28843733D02*
X126161102Y-28938971D01*
X126161102Y-28938971D02*
X126208721Y-29034209D01*
X126208721Y-29034209D02*
X126256340Y-29081828D01*
X126256340Y-29081828D02*
X126351578Y-29129447D01*
X126351578Y-29129447D02*
X126589673Y-29129447D01*
X126589673Y-29129447D02*
X126732530Y-29081828D01*
X127351578Y-29129447D02*
X127542054Y-29129447D01*
X127542054Y-29129447D02*
X127637292Y-29081828D01*
X127637292Y-29081828D02*
X127732530Y-28986590D01*
X127732530Y-28986590D02*
X127780149Y-28796114D01*
X127780149Y-28796114D02*
X127780149Y-28462781D01*
X127780149Y-28462781D02*
X127732530Y-28272305D01*
X127732530Y-28272305D02*
X127637292Y-28177067D01*
X127637292Y-28177067D02*
X127542054Y-28129447D01*
X127542054Y-28129447D02*
X127351578Y-28129447D01*
X127351578Y-28129447D02*
X127256340Y-28177067D01*
X127256340Y-28177067D02*
X127161102Y-28272305D01*
X127161102Y-28272305D02*
X127113483Y-28462781D01*
X127113483Y-28462781D02*
X127113483Y-28796114D01*
X127113483Y-28796114D02*
X127161102Y-28986590D01*
X127161102Y-28986590D02*
X127256340Y-29081828D01*
X127256340Y-29081828D02*
X127351578Y-29129447D01*
X127970626Y-28034209D02*
X128732530Y-28034209D01*
X128923007Y-28177067D02*
X129065864Y-28129447D01*
X129065864Y-28129447D02*
X129303959Y-28129447D01*
X129303959Y-28129447D02*
X129399197Y-28177067D01*
X129399197Y-28177067D02*
X129446816Y-28224686D01*
X129446816Y-28224686D02*
X129494435Y-28319924D01*
X129494435Y-28319924D02*
X129494435Y-28415162D01*
X129494435Y-28415162D02*
X129446816Y-28510400D01*
X129446816Y-28510400D02*
X129399197Y-28558019D01*
X129399197Y-28558019D02*
X129303959Y-28605638D01*
X129303959Y-28605638D02*
X129113483Y-28653257D01*
X129113483Y-28653257D02*
X129018245Y-28700876D01*
X129018245Y-28700876D02*
X128970626Y-28748495D01*
X128970626Y-28748495D02*
X128923007Y-28843733D01*
X128923007Y-28843733D02*
X128923007Y-28938971D01*
X128923007Y-28938971D02*
X128970626Y-29034209D01*
X128970626Y-29034209D02*
X129018245Y-29081828D01*
X129018245Y-29081828D02*
X129113483Y-29129447D01*
X129113483Y-29129447D02*
X129351578Y-29129447D01*
X129351578Y-29129447D02*
X129494435Y-29081828D01*
X129923007Y-28129447D02*
X129923007Y-29129447D01*
X129923007Y-28653257D02*
X130494435Y-28653257D01*
X130494435Y-28129447D02*
X130494435Y-29129447D01*
X130970626Y-28129447D02*
X130970626Y-29129447D01*
X131923006Y-28129447D02*
X131446816Y-28129447D01*
X131446816Y-28129447D02*
X131446816Y-29129447D01*
X132256340Y-28129447D02*
X132256340Y-29129447D01*
X132256340Y-29129447D02*
X132494435Y-29129447D01*
X132494435Y-29129447D02*
X132637292Y-29081828D01*
X132637292Y-29081828D02*
X132732530Y-28986590D01*
X132732530Y-28986590D02*
X132780149Y-28891352D01*
X132780149Y-28891352D02*
X132827768Y-28700876D01*
X132827768Y-28700876D02*
X132827768Y-28558019D01*
X132827768Y-28558019D02*
X132780149Y-28367543D01*
X132780149Y-28367543D02*
X132732530Y-28272305D01*
X132732530Y-28272305D02*
X132637292Y-28177067D01*
X132637292Y-28177067D02*
X132494435Y-28129447D01*
X132494435Y-28129447D02*
X132256340Y-28129447D01*
X137195863Y-66442780D02*
X136719673Y-66442780D01*
X136719673Y-66442780D02*
X136672054Y-65966590D01*
X136672054Y-65966590D02*
X136719673Y-66014209D01*
X136719673Y-66014209D02*
X136814911Y-66061828D01*
X136814911Y-66061828D02*
X137053006Y-66061828D01*
X137053006Y-66061828D02*
X137148244Y-66014209D01*
X137148244Y-66014209D02*
X137195863Y-65966590D01*
X137195863Y-65966590D02*
X137243482Y-65871352D01*
X137243482Y-65871352D02*
X137243482Y-65633257D01*
X137243482Y-65633257D02*
X137195863Y-65538019D01*
X137195863Y-65538019D02*
X137148244Y-65490400D01*
X137148244Y-65490400D02*
X137053006Y-65442780D01*
X137053006Y-65442780D02*
X136814911Y-65442780D01*
X136814911Y-65442780D02*
X136719673Y-65490400D01*
X136719673Y-65490400D02*
X136672054Y-65538019D01*
X137529197Y-66442780D02*
X137862530Y-65442780D01*
X137862530Y-65442780D02*
X138195863Y-66442780D01*
X127192054Y-73090400D02*
X127334911Y-73042780D01*
X127334911Y-73042780D02*
X127573006Y-73042780D01*
X127573006Y-73042780D02*
X127668244Y-73090400D01*
X127668244Y-73090400D02*
X127715863Y-73138019D01*
X127715863Y-73138019D02*
X127763482Y-73233257D01*
X127763482Y-73233257D02*
X127763482Y-73328495D01*
X127763482Y-73328495D02*
X127715863Y-73423733D01*
X127715863Y-73423733D02*
X127668244Y-73471352D01*
X127668244Y-73471352D02*
X127573006Y-73518971D01*
X127573006Y-73518971D02*
X127382530Y-73566590D01*
X127382530Y-73566590D02*
X127287292Y-73614209D01*
X127287292Y-73614209D02*
X127239673Y-73661828D01*
X127239673Y-73661828D02*
X127192054Y-73757066D01*
X127192054Y-73757066D02*
X127192054Y-73852304D01*
X127192054Y-73852304D02*
X127239673Y-73947542D01*
X127239673Y-73947542D02*
X127287292Y-73995161D01*
X127287292Y-73995161D02*
X127382530Y-74042780D01*
X127382530Y-74042780D02*
X127620625Y-74042780D01*
X127620625Y-74042780D02*
X127763482Y-73995161D01*
X128096816Y-74042780D02*
X128334911Y-73042780D01*
X128334911Y-73042780D02*
X128525387Y-73757066D01*
X128525387Y-73757066D02*
X128715863Y-73042780D01*
X128715863Y-73042780D02*
X128953959Y-74042780D01*
X129334911Y-73042780D02*
X129334911Y-74042780D01*
X129334911Y-74042780D02*
X129573006Y-74042780D01*
X129573006Y-74042780D02*
X129715863Y-73995161D01*
X129715863Y-73995161D02*
X129811101Y-73899923D01*
X129811101Y-73899923D02*
X129858720Y-73804685D01*
X129858720Y-73804685D02*
X129906339Y-73614209D01*
X129906339Y-73614209D02*
X129906339Y-73471352D01*
X129906339Y-73471352D02*
X129858720Y-73280876D01*
X129858720Y-73280876D02*
X129811101Y-73185638D01*
X129811101Y-73185638D02*
X129715863Y-73090400D01*
X129715863Y-73090400D02*
X129573006Y-73042780D01*
X129573006Y-73042780D02*
X129334911Y-73042780D01*
X130334911Y-73042780D02*
X130334911Y-74042780D01*
X131001577Y-74042780D02*
X131192053Y-74042780D01*
X131192053Y-74042780D02*
X131287291Y-73995161D01*
X131287291Y-73995161D02*
X131382529Y-73899923D01*
X131382529Y-73899923D02*
X131430148Y-73709447D01*
X131430148Y-73709447D02*
X131430148Y-73376114D01*
X131430148Y-73376114D02*
X131382529Y-73185638D01*
X131382529Y-73185638D02*
X131287291Y-73090400D01*
X131287291Y-73090400D02*
X131192053Y-73042780D01*
X131192053Y-73042780D02*
X131001577Y-73042780D01*
X131001577Y-73042780D02*
X130906339Y-73090400D01*
X130906339Y-73090400D02*
X130811101Y-73185638D01*
X130811101Y-73185638D02*
X130763482Y-73376114D01*
X130763482Y-73376114D02*
X130763482Y-73709447D01*
X130763482Y-73709447D02*
X130811101Y-73899923D01*
X130811101Y-73899923D02*
X130906339Y-73995161D01*
X130906339Y-73995161D02*
X131001577Y-74042780D01*
X137243482Y-71475161D02*
X137148244Y-71522780D01*
X137148244Y-71522780D02*
X137005387Y-71522780D01*
X137005387Y-71522780D02*
X136862530Y-71475161D01*
X136862530Y-71475161D02*
X136767292Y-71379923D01*
X136767292Y-71379923D02*
X136719673Y-71284685D01*
X136719673Y-71284685D02*
X136672054Y-71094209D01*
X136672054Y-71094209D02*
X136672054Y-70951352D01*
X136672054Y-70951352D02*
X136719673Y-70760876D01*
X136719673Y-70760876D02*
X136767292Y-70665638D01*
X136767292Y-70665638D02*
X136862530Y-70570400D01*
X136862530Y-70570400D02*
X137005387Y-70522780D01*
X137005387Y-70522780D02*
X137100625Y-70522780D01*
X137100625Y-70522780D02*
X137243482Y-70570400D01*
X137243482Y-70570400D02*
X137291101Y-70618019D01*
X137291101Y-70618019D02*
X137291101Y-70951352D01*
X137291101Y-70951352D02*
X137100625Y-70951352D01*
X137719673Y-70522780D02*
X137719673Y-71522780D01*
X137719673Y-71522780D02*
X138291101Y-70522780D01*
X138291101Y-70522780D02*
X138291101Y-71522780D01*
X138767292Y-70522780D02*
X138767292Y-71522780D01*
X138767292Y-71522780D02*
X139005387Y-71522780D01*
X139005387Y-71522780D02*
X139148244Y-71475161D01*
X139148244Y-71475161D02*
X139243482Y-71379923D01*
X139243482Y-71379923D02*
X139291101Y-71284685D01*
X139291101Y-71284685D02*
X139338720Y-71094209D01*
X139338720Y-71094209D02*
X139338720Y-70951352D01*
X139338720Y-70951352D02*
X139291101Y-70760876D01*
X139291101Y-70760876D02*
X139243482Y-70665638D01*
X139243482Y-70665638D02*
X139148244Y-70570400D01*
X139148244Y-70570400D02*
X139005387Y-70522780D01*
X139005387Y-70522780D02*
X138767292Y-70522780D01*
X136624435Y-68982780D02*
X137291101Y-67982780D01*
X137291101Y-68982780D02*
X136624435Y-67982780D01*
X130525386Y-66482780D02*
X130049196Y-66482780D01*
X130049196Y-66482780D02*
X130001577Y-66006590D01*
X130001577Y-66006590D02*
X130049196Y-66054209D01*
X130049196Y-66054209D02*
X130144434Y-66101828D01*
X130144434Y-66101828D02*
X130382529Y-66101828D01*
X130382529Y-66101828D02*
X130477767Y-66054209D01*
X130477767Y-66054209D02*
X130525386Y-66006590D01*
X130525386Y-66006590D02*
X130573005Y-65911352D01*
X130573005Y-65911352D02*
X130573005Y-65673257D01*
X130573005Y-65673257D02*
X130525386Y-65578019D01*
X130525386Y-65578019D02*
X130477767Y-65530400D01*
X130477767Y-65530400D02*
X130382529Y-65482780D01*
X130382529Y-65482780D02*
X130144434Y-65482780D01*
X130144434Y-65482780D02*
X130049196Y-65530400D01*
X130049196Y-65530400D02*
X130001577Y-65578019D01*
X130858720Y-66482780D02*
X131192053Y-65482780D01*
X131192053Y-65482780D02*
X131525386Y-66482780D01*
D11*
X115142857Y-65304819D02*
X115476190Y-64828628D01*
X115714285Y-65304819D02*
X115714285Y-64304819D01*
X115714285Y-64304819D02*
X115333333Y-64304819D01*
X115333333Y-64304819D02*
X115238095Y-64352438D01*
X115238095Y-64352438D02*
X115190476Y-64400057D01*
X115190476Y-64400057D02*
X115142857Y-64495295D01*
X115142857Y-64495295D02*
X115142857Y-64638152D01*
X115142857Y-64638152D02*
X115190476Y-64733390D01*
X115190476Y-64733390D02*
X115238095Y-64781009D01*
X115238095Y-64781009D02*
X115333333Y-64828628D01*
X115333333Y-64828628D02*
X115714285Y-64828628D01*
X114761904Y-64400057D02*
X114714285Y-64352438D01*
X114714285Y-64352438D02*
X114619047Y-64304819D01*
X114619047Y-64304819D02*
X114380952Y-64304819D01*
X114380952Y-64304819D02*
X114285714Y-64352438D01*
X114285714Y-64352438D02*
X114238095Y-64400057D01*
X114238095Y-64400057D02*
X114190476Y-64495295D01*
X114190476Y-64495295D02*
X114190476Y-64590533D01*
X114190476Y-64590533D02*
X114238095Y-64733390D01*
X114238095Y-64733390D02*
X114809523Y-65304819D01*
X114809523Y-65304819D02*
X114190476Y-65304819D01*
X113285714Y-64304819D02*
X113761904Y-64304819D01*
X113761904Y-64304819D02*
X113809523Y-64781009D01*
X113809523Y-64781009D02*
X113761904Y-64733390D01*
X113761904Y-64733390D02*
X113666666Y-64685771D01*
X113666666Y-64685771D02*
X113428571Y-64685771D01*
X113428571Y-64685771D02*
X113333333Y-64733390D01*
X113333333Y-64733390D02*
X113285714Y-64781009D01*
X113285714Y-64781009D02*
X113238095Y-64876247D01*
X113238095Y-64876247D02*
X113238095Y-65114342D01*
X113238095Y-65114342D02*
X113285714Y-65209580D01*
X113285714Y-65209580D02*
X113333333Y-65257200D01*
X113333333Y-65257200D02*
X113428571Y-65304819D01*
X113428571Y-65304819D02*
X113666666Y-65304819D01*
X113666666Y-65304819D02*
X113761904Y-65257200D01*
X113761904Y-65257200D02*
X113809523Y-65209580D01*
D12*
%TO.C,R25*%
X114727064Y-65765000D02*
X114272936Y-65765000D01*
X114727064Y-67235000D02*
X114272936Y-67235000D01*
%TD*%
M02*
