%TF.GenerationSoftware,KiCad,Pcbnew,9.0.5*%
%TF.CreationDate,2025-11-18T12:35:56+03:00*%
%TF.ProjectId,BMS_V4.013,424d535f-5634-42e3-9031-332e6b696361,rev?*%
%TF.SameCoordinates,Original*%
%TF.FileFunction,Soldermask,Top*%
%TF.FilePolarity,Negative*%
%FSLAX46Y46*%
G04 Gerber Fmt 4.6, Leading zero omitted, Abs format (unit mm)*
G04 Created by KiCad (PCBNEW 9.0.5) date 2025-11-18 12:35:56*
%MOMM*%
%LPD*%
G01*
G04 APERTURE LIST*
G04 Aperture macros list*
%AMRoundRect*
0 Rectangle with rounded corners*
0 $1 Rounding radius*
0 $2 $3 $4 $5 $6 $7 $8 $9 X,Y pos of 4 corners*
0 Add a 4 corners polygon primitive as box body*
4,1,4,$2,$3,$4,$5,$6,$7,$8,$9,$2,$3,0*
0 Add four circle primitives for the rounded corners*
1,1,$1+$1,$2,$3*
1,1,$1+$1,$4,$5*
1,1,$1+$1,$6,$7*
1,1,$1+$1,$8,$9*
0 Add four rect primitives between the rounded corners*
20,1,$1+$1,$2,$3,$4,$5,0*
20,1,$1+$1,$4,$5,$6,$7,0*
20,1,$1+$1,$6,$7,$8,$9,0*
20,1,$1+$1,$8,$9,$2,$3,0*%
%AMRotRect*
0 Rectangle, with rotation*
0 The origin of the aperture is its center*
0 $1 length*
0 $2 width*
0 $3 Rotation angle, in degrees counterclockwise*
0 Add horizontal line*
21,1,$1,$2,0,0,$3*%
G04 Aperture macros list end*
%ADD10C,1.000000*%
%ADD11RoundRect,0.650000X-0.650000X-0.650000X0.650000X-0.650000X0.650000X0.650000X-0.650000X0.650000X0*%
%ADD12C,2.600000*%
%ADD13R,1.200000X3.700000*%
%ADD14R,1.050000X1.400000*%
%ADD15RoundRect,0.250000X0.450000X-0.350000X0.450000X0.350000X-0.450000X0.350000X-0.450000X-0.350000X0*%
%ADD16RoundRect,0.250000X0.475000X-0.250000X0.475000X0.250000X-0.475000X0.250000X-0.475000X-0.250000X0*%
%ADD17R,2.025000X2.025000*%
%ADD18C,2.025000*%
%ADD19C,1.575000*%
%ADD20RoundRect,0.250000X0.450000X-0.325000X0.450000X0.325000X-0.450000X0.325000X-0.450000X-0.325000X0*%
%ADD21RoundRect,0.250000X0.337500X0.475000X-0.337500X0.475000X-0.337500X-0.475000X0.337500X-0.475000X0*%
%ADD22RoundRect,0.102000X-0.580000X-0.735000X0.580000X-0.735000X0.580000X0.735000X-0.580000X0.735000X0*%
%ADD23RoundRect,0.250000X-0.475000X0.337500X-0.475000X-0.337500X0.475000X-0.337500X0.475000X0.337500X0*%
%ADD24RoundRect,0.102000X0.735000X-0.580000X0.735000X0.580000X-0.735000X0.580000X-0.735000X-0.580000X0*%
%ADD25RoundRect,0.102000X-0.575000X-0.575000X0.575000X-0.575000X0.575000X0.575000X-0.575000X0.575000X0*%
%ADD26RoundRect,0.102000X0.605000X0.360000X-0.605000X0.360000X-0.605000X-0.360000X0.605000X-0.360000X0*%
%ADD27R,1.500000X1.500000*%
%ADD28C,1.500000*%
%ADD29RoundRect,0.102000X-1.480000X-2.755000X1.480000X-2.755000X1.480000X2.755000X-1.480000X2.755000X0*%
%ADD30RoundRect,0.102000X0.575000X0.575000X-0.575000X0.575000X-0.575000X-0.575000X0.575000X-0.575000X0*%
%ADD31RoundRect,0.250000X-0.337500X-0.475000X0.337500X-0.475000X0.337500X0.475000X-0.337500X0.475000X0*%
%ADD32RoundRect,0.175500X0.526500X0.836500X-0.526500X0.836500X-0.526500X-0.836500X0.526500X-0.836500X0*%
%ADD33R,1.100000X1.100000*%
%ADD34C,1.100000*%
%ADD35R,0.900000X1.400000*%
%ADD36RoundRect,0.250000X-1.100000X0.325000X-1.100000X-0.325000X1.100000X-0.325000X1.100000X0.325000X0*%
%ADD37RoundRect,0.060500X-0.821500X-0.181500X0.821500X-0.181500X0.821500X0.181500X-0.821500X0.181500X0*%
%ADD38RoundRect,0.060500X-0.181500X-0.821500X0.181500X-0.821500X0.181500X0.821500X-0.181500X0.821500X0*%
%ADD39RoundRect,0.102000X-0.735000X0.580000X-0.735000X-0.580000X0.735000X-0.580000X0.735000X0.580000X0*%
%ADD40RoundRect,0.250000X0.600000X0.600000X-0.600000X0.600000X-0.600000X-0.600000X0.600000X-0.600000X0*%
%ADD41C,1.700000*%
%ADD42RoundRect,0.250000X-0.350000X-0.450000X0.350000X-0.450000X0.350000X0.450000X-0.350000X0.450000X0*%
%ADD43RoundRect,0.150000X0.150000X-0.587500X0.150000X0.587500X-0.150000X0.587500X-0.150000X-0.587500X0*%
%ADD44RoundRect,0.102000X0.580000X0.735000X-0.580000X0.735000X-0.580000X-0.735000X0.580000X-0.735000X0*%
%ADD45RoundRect,0.250000X1.050000X-1.050000X1.050000X1.050000X-1.050000X1.050000X-1.050000X-1.050000X0*%
%ADD46RoundRect,0.250000X-0.450000X0.350000X-0.450000X-0.350000X0.450000X-0.350000X0.450000X0.350000X0*%
%ADD47R,4.500000X4.500000*%
%ADD48C,4.500000*%
%ADD49RoundRect,0.250000X0.475000X-0.337500X0.475000X0.337500X-0.475000X0.337500X-0.475000X-0.337500X0*%
%ADD50RoundRect,0.162500X-1.012500X-0.162500X1.012500X-0.162500X1.012500X0.162500X-1.012500X0.162500X0*%
%ADD51C,2.000000*%
%ADD52RoundRect,0.102000X-0.575000X0.575000X-0.575000X-0.575000X0.575000X-0.575000X0.575000X0.575000X0*%
%ADD53R,1.200000X0.600000*%
%ADD54R,2.400000X1.500000*%
%ADD55R,1.050000X1.500000*%
%ADD56RotRect,1.050000X1.400000X45.000000*%
%ADD57R,1.400000X1.100000*%
%ADD58RoundRect,0.075000X-0.662500X-0.075000X0.662500X-0.075000X0.662500X0.075000X-0.662500X0.075000X0*%
%ADD59RoundRect,0.075000X-0.075000X-0.662500X0.075000X-0.662500X0.075000X0.662500X-0.075000X0.662500X0*%
G04 APERTURE END LIST*
D10*
%TO.C,TP11*%
X101220000Y-45980000D03*
%TD*%
D11*
%TO.C,TP9*%
X71190000Y-121580000D03*
D12*
X76270000Y-121580000D03*
%TD*%
D13*
%TO.C,L2*%
X79480000Y-38070000D03*
X76680000Y-38070000D03*
%TD*%
D14*
%TO.C,R12*%
X54900000Y-61800000D03*
X56800000Y-61800000D03*
%TD*%
D15*
%TO.C,R37*%
X127450000Y-46580000D03*
X127450000Y-44580000D03*
%TD*%
D16*
%TO.C,C15*%
X61271009Y-43964583D03*
X61271009Y-42064583D03*
%TD*%
%TO.C,C6*%
X61271009Y-89644983D03*
X61271009Y-87744983D03*
%TD*%
D10*
%TO.C,TP3*%
X103000000Y-107800000D03*
%TD*%
D16*
%TO.C,C9*%
X61271009Y-74418183D03*
X61271009Y-72518183D03*
%TD*%
D17*
%TO.C,J1*%
X49150000Y-113310000D03*
D18*
X49150000Y-109500000D03*
X49150000Y-105690000D03*
X49150000Y-101880000D03*
X49150000Y-98070000D03*
X49150000Y-94260000D03*
%TD*%
D19*
%TO.C,PS2*%
X104100000Y-36990000D03*
X104100000Y-34450000D03*
X104100000Y-31910000D03*
X104100000Y-29370000D03*
%TD*%
D17*
%TO.C,J3*%
X49150000Y-57430000D03*
D18*
X49150000Y-53620000D03*
X49150000Y-49810000D03*
X49150000Y-46000000D03*
X49150000Y-42190000D03*
X49150000Y-38380000D03*
%TD*%
D20*
%TO.C,R29*%
X112164800Y-31220900D03*
X112164800Y-29170900D03*
%TD*%
D21*
%TO.C,C24*%
X119637500Y-65400000D03*
X117562500Y-65400000D03*
%TD*%
D22*
%TO.C,C19*%
X109949016Y-106636499D03*
X111709016Y-106636499D03*
%TD*%
D23*
%TO.C,C23*%
X109710000Y-76472500D03*
X109710000Y-78547500D03*
%TD*%
D24*
%TO.C,C31*%
X105536000Y-67500700D03*
X105536000Y-65740700D03*
%TD*%
D14*
%TO.C,R13*%
X54900000Y-56400000D03*
X56800000Y-56400000D03*
%TD*%
%TO.C,R3*%
X54900000Y-104800000D03*
X56800000Y-104800000D03*
%TD*%
D16*
%TO.C,C8*%
X61271009Y-79493783D03*
X61271009Y-77593783D03*
%TD*%
%TO.C,C13*%
X61271009Y-54115783D03*
X61271009Y-52215783D03*
%TD*%
D14*
%TO.C,R7*%
X54900000Y-85600000D03*
X56800000Y-85600000D03*
%TD*%
%TO.C,R11*%
X54900000Y-66400000D03*
X56800000Y-66400000D03*
%TD*%
D16*
%TO.C,C2*%
X61271009Y-109947383D03*
X61271009Y-108047383D03*
%TD*%
%TO.C,C16*%
X61271009Y-38888983D03*
X61271009Y-36988983D03*
%TD*%
D23*
%TO.C,C30*%
X112200000Y-34600000D03*
X112200000Y-36675000D03*
%TD*%
D16*
%TO.C,C1*%
X61271009Y-115022983D03*
X61271009Y-113122983D03*
%TD*%
D25*
%TO.C,R23*%
X83999000Y-73734000D03*
X86349000Y-73734000D03*
%TD*%
D26*
%TO.C,D1*%
X62285000Y-32505000D03*
X58925000Y-32505000D03*
%TD*%
D27*
%TO.C,S2*%
X124200000Y-92550000D03*
D28*
X124200000Y-86050000D03*
X128700000Y-92550000D03*
X128700000Y-86050000D03*
%TD*%
D17*
%TO.C,J2*%
X49150000Y-85370000D03*
D18*
X49150000Y-81560000D03*
X49150000Y-77750000D03*
X49150000Y-73940000D03*
X49150000Y-70130000D03*
X49150000Y-66320000D03*
%TD*%
D29*
%TO.C,R21*%
X106802016Y-120352499D03*
X114856016Y-120352499D03*
%TD*%
D22*
%TO.C,C29*%
X108406000Y-63150000D03*
X110166000Y-63150000D03*
%TD*%
D27*
%TO.C,S1*%
X85400000Y-68400000D03*
D28*
X78900000Y-68400000D03*
X85400000Y-63900000D03*
X78900000Y-63900000D03*
%TD*%
D30*
%TO.C,R24*%
X110461000Y-70189300D03*
X108111000Y-70189300D03*
%TD*%
D14*
%TO.C,R6*%
X54900000Y-90400000D03*
X56800000Y-90400000D03*
%TD*%
%TO.C,R5*%
X54900000Y-95000000D03*
X56800000Y-95000000D03*
%TD*%
D24*
%TO.C,C48*%
X81455000Y-33185000D03*
X81455000Y-31425000D03*
%TD*%
D15*
%TO.C,R35*%
X132500000Y-91350000D03*
X132500000Y-89350000D03*
%TD*%
D31*
%TO.C,C34*%
X108725000Y-42800000D03*
X110800000Y-42800000D03*
%TD*%
D32*
%TO.C,C17*%
X86484000Y-76434000D03*
X83564000Y-76434000D03*
%TD*%
D16*
%TO.C,C12*%
X61271009Y-59191383D03*
X61271009Y-57291383D03*
%TD*%
D14*
%TO.C,R8*%
X54900000Y-80600000D03*
X56800000Y-80600000D03*
%TD*%
D22*
%TO.C,C18*%
X79120000Y-76500000D03*
X80880000Y-76500000D03*
%TD*%
D16*
%TO.C,C5*%
X61271009Y-94720583D03*
X61271009Y-92820583D03*
%TD*%
D14*
%TO.C,R4*%
X54900000Y-100000000D03*
X56800000Y-100000000D03*
%TD*%
D22*
%TO.C,C22*%
X84364000Y-60134000D03*
X86124000Y-60134000D03*
%TD*%
D25*
%TO.C,R18*%
X78710000Y-73734000D03*
X81060000Y-73734000D03*
%TD*%
D33*
%TO.C,J11*%
X117290000Y-53200000D03*
D34*
X114750000Y-53200000D03*
X112210000Y-53200000D03*
%TD*%
D10*
%TO.C,TP10*%
X101220000Y-48879286D03*
%TD*%
D35*
%TO.C,LED1*%
X125950000Y-80500000D03*
X124050000Y-80500000D03*
%TD*%
D36*
%TO.C,C49*%
X70025000Y-30645000D03*
X70025000Y-33595000D03*
%TD*%
D37*
%TO.C,U1*%
X78232000Y-81300000D03*
X78232000Y-81800000D03*
X78232000Y-82300000D03*
X78232000Y-82800000D03*
X78232000Y-83300000D03*
X78232000Y-83800000D03*
X78232000Y-84300000D03*
X78232000Y-84800000D03*
X78232000Y-85300000D03*
X78232000Y-85800000D03*
X78232000Y-86300000D03*
X78232000Y-86800000D03*
D38*
X79662000Y-88230000D03*
X80162000Y-88230000D03*
X80662000Y-88230000D03*
X81162000Y-88230000D03*
X81662000Y-88230000D03*
X82162000Y-88230000D03*
X82662000Y-88230000D03*
X83162000Y-88230000D03*
X83662000Y-88230000D03*
X84162000Y-88230000D03*
X84662000Y-88230000D03*
X85162000Y-88230000D03*
D37*
X86592000Y-86800000D03*
X86592000Y-86300000D03*
X86592000Y-85800000D03*
X86592000Y-85300000D03*
X86592000Y-84800000D03*
X86592000Y-84300000D03*
X86592000Y-83800000D03*
X86592000Y-83300000D03*
X86592000Y-82800000D03*
X86592000Y-82300000D03*
X86592000Y-81800000D03*
X86592000Y-81300000D03*
D38*
X85162000Y-79870000D03*
X84662000Y-79870000D03*
X84162000Y-79870000D03*
X83662000Y-79870000D03*
X83162000Y-79870000D03*
X82662000Y-79870000D03*
X82162000Y-79870000D03*
X81662000Y-79870000D03*
X81162000Y-79870000D03*
X80662000Y-79870000D03*
X80162000Y-79870000D03*
X79662000Y-79870000D03*
%TD*%
D14*
%TO.C,R17*%
X54900000Y-37800000D03*
X56800000Y-37800000D03*
%TD*%
D39*
%TO.C,C43*%
X84401400Y-36470600D03*
X84401400Y-38230600D03*
%TD*%
D31*
%TO.C,C26*%
X122362500Y-62307500D03*
X124437500Y-62307500D03*
%TD*%
D14*
%TO.C,R9*%
X54900000Y-76000000D03*
X56800000Y-76000000D03*
%TD*%
D30*
%TO.C,R28*%
X75580000Y-28480000D03*
X73230000Y-28480000D03*
%TD*%
D40*
%TO.C,J4*%
X135400000Y-76200000D03*
D41*
X132860000Y-76200000D03*
X135400000Y-73660000D03*
X132860000Y-73660000D03*
X135400000Y-71120000D03*
X132860000Y-71120000D03*
X135400000Y-68580000D03*
X132860000Y-68580000D03*
X135400000Y-66040000D03*
X132860000Y-66040000D03*
%TD*%
D10*
%TO.C,TP2*%
X79500000Y-43000000D03*
%TD*%
D42*
%TO.C,R26*%
X128050000Y-50250000D03*
X130050000Y-50250000D03*
%TD*%
D16*
%TO.C,C11*%
X61271009Y-64266983D03*
X61271009Y-62366983D03*
%TD*%
D10*
%TO.C,TP6*%
X107660000Y-74610000D03*
%TD*%
D14*
%TO.C,R15*%
X54900000Y-47200000D03*
X56800000Y-47200000D03*
%TD*%
D43*
%TO.C,U2*%
X109710000Y-74587500D03*
X111610000Y-74587500D03*
X110660000Y-72712500D03*
%TD*%
D24*
%TO.C,C38*%
X109269200Y-31098400D03*
X109269200Y-29338400D03*
%TD*%
D10*
%TO.C,TP8*%
X62280000Y-30380000D03*
%TD*%
D14*
%TO.C,R2*%
X54900000Y-109400000D03*
X56800000Y-109400000D03*
%TD*%
D44*
%TO.C,C45*%
X91123400Y-40398600D03*
X89363400Y-40398600D03*
%TD*%
D16*
%TO.C,C14*%
X61271009Y-49040183D03*
X61271009Y-47140183D03*
%TD*%
D24*
%TO.C,C37*%
X109269200Y-36469700D03*
X109269200Y-34709700D03*
%TD*%
D45*
%TO.C,J5*%
X134600000Y-44000000D03*
D12*
X134600000Y-38920000D03*
X134600000Y-33840000D03*
X134600000Y-28760000D03*
%TD*%
D46*
%TO.C,R30*%
X127450000Y-39500000D03*
X127450000Y-41500000D03*
%TD*%
D47*
%TO.C,J9*%
X124339016Y-121255499D03*
D48*
X124339016Y-107755499D03*
X130339016Y-121255499D03*
X130339016Y-107755499D03*
X136339016Y-121255499D03*
X136339016Y-107755499D03*
%TD*%
D21*
%TO.C,C36*%
X110800000Y-48900000D03*
X108725000Y-48900000D03*
%TD*%
D10*
%TO.C,TP7*%
X122640000Y-82580000D03*
%TD*%
D44*
%TO.C,C21*%
X79924000Y-60146000D03*
X78164000Y-60146000D03*
%TD*%
D33*
%TO.C,J10*%
X121680000Y-53200000D03*
D34*
X124220000Y-53200000D03*
X126760000Y-53200000D03*
%TD*%
D10*
%TO.C,TP4*%
X118400000Y-107800000D03*
%TD*%
D22*
%TO.C,C20*%
X109949016Y-109176499D03*
X111709016Y-109176499D03*
%TD*%
D49*
%TO.C,C46*%
X132500000Y-87387500D03*
X132500000Y-85312500D03*
%TD*%
D39*
%TO.C,C44*%
X91767400Y-36470600D03*
X91767400Y-38230600D03*
%TD*%
D14*
%TO.C,R31*%
X120050000Y-80500000D03*
X121950000Y-80500000D03*
%TD*%
D10*
%TO.C,TP1*%
X76000000Y-71000000D03*
%TD*%
D21*
%TO.C,C32*%
X110800000Y-39500000D03*
X108725000Y-39500000D03*
%TD*%
D50*
%TO.C,U4*%
X114725000Y-39190000D03*
X114725000Y-41730000D03*
X114725000Y-44270000D03*
X114725000Y-46810000D03*
X123775000Y-46810000D03*
X123775000Y-44270000D03*
X123775000Y-41730000D03*
X123775000Y-39190000D03*
%TD*%
D24*
%TO.C,C47*%
X78439000Y-33185000D03*
X78439000Y-31425000D03*
%TD*%
D31*
%TO.C,C28*%
X122362500Y-68385000D03*
X124437500Y-68385000D03*
%TD*%
D10*
%TO.C,TP5*%
X94860000Y-36520000D03*
%TD*%
D14*
%TO.C,R16*%
X54900000Y-42400000D03*
X56800000Y-42400000D03*
%TD*%
D51*
%TO.C,C33*%
X122950000Y-33700000D03*
X122950000Y-28700000D03*
%TD*%
D52*
%TO.C,R19*%
X114893016Y-111557499D03*
X114893016Y-113907499D03*
%TD*%
D16*
%TO.C,C10*%
X61271009Y-69342583D03*
X61271009Y-67442583D03*
%TD*%
D53*
%TO.C,IC2*%
X86707400Y-36400600D03*
X86707400Y-37350600D03*
X86707400Y-38300600D03*
X89207400Y-38300600D03*
X89207400Y-36400600D03*
%TD*%
D21*
%TO.C,C25*%
X119637500Y-62307500D03*
X117562500Y-62307500D03*
%TD*%
D25*
%TO.C,R22*%
X80939000Y-57384000D03*
X83289000Y-57384000D03*
%TD*%
D47*
%TO.C,J8*%
X85319016Y-121255499D03*
D48*
X85319016Y-107755499D03*
X91319016Y-121255499D03*
X91319016Y-107755499D03*
X97319016Y-121255499D03*
X97319016Y-107755499D03*
%TD*%
D42*
%TO.C,R27*%
X123750000Y-50250000D03*
X125750000Y-50250000D03*
%TD*%
D31*
%TO.C,C27*%
X122362500Y-65346250D03*
X124437500Y-65346250D03*
%TD*%
D54*
%TO.C,D5*%
X72387200Y-36995000D03*
D55*
X70012200Y-36995000D03*
%TD*%
D52*
%TO.C,R20*%
X106765016Y-111557499D03*
X106765016Y-113907499D03*
%TD*%
D21*
%TO.C,C35*%
X110800000Y-45700000D03*
X108725000Y-45700000D03*
%TD*%
D16*
%TO.C,C3*%
X61271009Y-104871783D03*
X61271009Y-102971783D03*
%TD*%
%TO.C,C7*%
X61271009Y-84569383D03*
X61271009Y-82669383D03*
%TD*%
D56*
%TO.C,R32*%
X77186498Y-96683502D03*
X78530000Y-95340000D03*
%TD*%
D14*
%TO.C,R1*%
X54900000Y-114365983D03*
X56800000Y-114365983D03*
%TD*%
D33*
%TO.C,J6*%
X90350000Y-97190000D03*
D34*
X87810000Y-97190000D03*
X85270000Y-97190000D03*
%TD*%
D33*
%TO.C,J7*%
X96660000Y-67000000D03*
D34*
X99200000Y-67000000D03*
X101740000Y-67000000D03*
%TD*%
D53*
%TO.C,IC3*%
X75720000Y-32865000D03*
X75720000Y-31915000D03*
X75720000Y-30965000D03*
X73220000Y-30965000D03*
X73220000Y-32865000D03*
%TD*%
D57*
%TO.C,Y1*%
X110452900Y-65820700D03*
X108252900Y-65820700D03*
X108252900Y-67420700D03*
X110452900Y-67420700D03*
%TD*%
D16*
%TO.C,C4*%
X61271009Y-99796183D03*
X61271009Y-97896183D03*
%TD*%
D46*
%TO.C,R36*%
X135000000Y-89350000D03*
X135000000Y-91350000D03*
%TD*%
D14*
%TO.C,R14*%
X54900000Y-52000000D03*
X56800000Y-52000000D03*
%TD*%
D58*
%TO.C,U3*%
X113637500Y-70547500D03*
X113637500Y-71047500D03*
X113637500Y-71547500D03*
X113637500Y-72047500D03*
X113637500Y-72547500D03*
X113637500Y-73047500D03*
X113637500Y-73547500D03*
X113637500Y-74047500D03*
X113637500Y-74547500D03*
X113637500Y-75047500D03*
X113637500Y-75547500D03*
X113637500Y-76047500D03*
D59*
X115050000Y-77460000D03*
X115550000Y-77460000D03*
X116050000Y-77460000D03*
X116550000Y-77460000D03*
X117050000Y-77460000D03*
X117550000Y-77460000D03*
X118050000Y-77460000D03*
X118550000Y-77460000D03*
X119050000Y-77460000D03*
X119550000Y-77460000D03*
X120050000Y-77460000D03*
X120550000Y-77460000D03*
D58*
X121962500Y-76047500D03*
X121962500Y-75547500D03*
X121962500Y-75047500D03*
X121962500Y-74547500D03*
X121962500Y-74047500D03*
X121962500Y-73547500D03*
X121962500Y-73047500D03*
X121962500Y-72547500D03*
X121962500Y-72047500D03*
X121962500Y-71547500D03*
X121962500Y-71047500D03*
X121962500Y-70547500D03*
D59*
X120550000Y-69135000D03*
X120050000Y-69135000D03*
X119550000Y-69135000D03*
X119050000Y-69135000D03*
X118550000Y-69135000D03*
X118050000Y-69135000D03*
X117550000Y-69135000D03*
X117050000Y-69135000D03*
X116550000Y-69135000D03*
X116050000Y-69135000D03*
X115550000Y-69135000D03*
X115050000Y-69135000D03*
%TD*%
D14*
%TO.C,R10*%
X54900000Y-71200000D03*
X56800000Y-71200000D03*
%TD*%
M02*
